<?xml version="1.0" encoding="UTF-8"?>
<!DOCTYPE svg PUBLIC "-//W3C//DTD SVG 1.1//EN" "http://www.w3.org/Graphics/SVG/1.1/DTD/svg11.dtd">
<svg xmlns="http://www.w3.org/2000/svg" version="1.1" width="375px" height="375px" style="shape-rendering:geometricPrecision; text-rendering:geometricPrecision; image-rendering:optimizeQuality; fill-rule:evenodd; clip-rule:evenodd" xmlns:xlink="http://www.w3.org/1999/xlink">
<g><path style="opacity:1" fill="#000000" d="M -0.5,-0.5 C 124.5,-0.5 249.5,-0.5 374.5,-0.5C 374.5,124.5 374.5,249.5 374.5,374.5C 249.5,374.5 124.5,374.5 -0.5,374.5C -0.5,249.5 -0.5,124.5 -0.5,-0.5 Z M 34.5,45.5 C 82.5,45.5 130.5,45.5 178.5,45.5C 178.5,50.8333 178.5,56.1667 178.5,61.5C 167.798,62.5398 157.465,65.0398 147.5,69C 145.416,70.5007 144.083,72.5007 143.5,75C 146.732,87.0302 150.566,98.8635 155,110.5C 174.676,162.867 194.343,215.2 214,267.5C 231.864,218.243 249.53,168.909 267,119.5C 271.672,106.644 275.172,93.4774 277.5,80C 275.884,73.0508 271.551,68.7175 264.5,67C 255.639,64.6343 246.639,63.1343 237.5,62.5C 237.5,56.8333 237.5,51.1667 237.5,45.5C 273.5,45.5 309.5,45.5 345.5,45.5C 345.5,51.1667 345.5,56.8333 345.5,62.5C 328.461,64.2635 315.295,72.2635 306,86.5C 272.279,170.28 239.946,254.613 209,339.5C 202.411,340.158 195.744,340.491 189,340.5C 182.094,340.479 175.428,339.812 169,338.5C 138.167,253.838 106.5,169.504 74,85.5C 64.4428,71.8039 51.2761,64.1372 34.5,62.5C 34.5,56.8333 34.5,51.1667 34.5,45.5 Z"/></g>
</svg>
